<svg width="648" height="663" viewBox="0 0 648 663" fill="none" xmlns="http://www.w3.org/2000/svg">
<rect width="312" height="315" rx="18" fill="white"/>
<path d="M156 269.802C173.008 269.802 189.792 265.921 205.074 258.456C220.356 250.99 233.733 240.137 244.188 226.721C254.642 213.305 261.898 197.681 265.402 181.038C268.907 164.395 268.569 147.172 264.413 130.68C260.257 114.187 252.392 98.8603 241.419 85.8658C230.446 72.8713 216.652 62.5517 201.088 55.6925C185.525 48.8334 168.601 45.6155 151.606 46.2839C134.612 46.9522 117.993 51.4892 103.016 59.5494L121.928 94.6896C131.559 89.5063 142.246 86.5887 153.175 86.1589C164.103 85.7291 174.986 87.7984 184.995 92.2093C195.003 96.6202 203.873 103.256 210.93 111.613C217.987 119.969 223.044 129.825 225.717 140.431C228.389 151.037 228.607 162.112 226.353 172.815C224.099 183.518 219.433 193.565 212.71 202.192C205.988 210.819 197.385 217.799 187.558 222.6C177.73 227.4 166.937 229.896 156 229.896L156 269.802Z" fill="#448C74"/>
<path d="M65.1215 223.122C74.7207 236.517 87.1626 247.625 101.557 255.651C115.951 263.676 131.941 268.42 148.383 269.542L151.102 229.729C140.529 229.007 130.246 225.957 120.989 220.796C111.733 215.635 103.732 208.492 97.559 199.877L65.1215 223.122Z" fill="#EDCB50"/>
<path d="M46.1766 137.059C40.8352 165.071 46.3995 194.065 61.7312 218.109L95.3788 196.654C85.5196 181.192 81.9413 162.547 85.3762 144.533L46.1766 137.059Z" fill="#3F7FC9"/>
<path d="M132.341 170.318C130.652 170.318 129.152 170.034 127.841 169.466C126.538 168.898 125.515 168.121 124.773 167.136C124.038 166.144 123.674 165.019 123.682 163.761C123.674 162.784 123.886 161.886 124.318 161.068C124.75 160.25 125.333 159.568 126.068 159.023C126.811 158.47 127.636 158.117 128.545 157.966V157.807C127.348 157.542 126.379 156.932 125.636 155.977C124.902 155.015 124.538 153.905 124.545 152.648C124.538 151.451 124.871 150.383 125.545 149.443C126.22 148.504 127.144 147.765 128.318 147.227C129.492 146.682 130.833 146.409 132.341 146.409C133.833 146.409 135.163 146.682 136.33 147.227C137.504 147.765 138.428 148.504 139.102 149.443C139.784 150.383 140.125 151.451 140.125 152.648C140.125 153.905 139.75 155.015 139 155.977C138.258 156.932 137.299 157.542 136.125 157.807V157.966C137.034 158.117 137.852 158.47 138.58 159.023C139.314 159.568 139.898 160.25 140.33 161.068C140.769 161.886 140.989 162.784 140.989 163.761C140.989 165.019 140.617 166.144 139.875 167.136C139.133 168.121 138.11 168.898 136.807 169.466C135.511 170.034 134.023 170.318 132.341 170.318ZM132.341 167.068C133.212 167.068 133.97 166.92 134.614 166.625C135.258 166.322 135.758 165.898 136.114 165.352C136.47 164.807 136.652 164.178 136.659 163.466C136.652 162.723 136.458 162.068 136.08 161.5C135.708 160.924 135.197 160.473 134.545 160.148C133.902 159.822 133.167 159.659 132.341 159.659C131.508 159.659 130.765 159.822 130.114 160.148C129.462 160.473 128.947 160.924 128.568 161.5C128.197 162.068 128.015 162.723 128.023 163.466C128.015 164.178 128.189 164.807 128.545 165.352C128.902 165.89 129.402 166.311 130.045 166.614C130.697 166.917 131.462 167.068 132.341 167.068ZM132.341 156.466C133.053 156.466 133.682 156.322 134.227 156.034C134.78 155.746 135.216 155.345 135.534 154.83C135.852 154.314 136.015 153.72 136.023 153.045C136.015 152.379 135.856 151.795 135.545 151.295C135.235 150.788 134.803 150.398 134.25 150.125C133.697 149.845 133.061 149.705 132.341 149.705C131.606 149.705 130.958 149.845 130.398 150.125C129.845 150.398 129.413 150.788 129.102 151.295C128.799 151.795 128.652 152.379 128.659 153.045C128.652 153.72 128.803 154.314 129.114 154.83C129.432 155.337 129.867 155.739 130.42 156.034C130.981 156.322 131.621 156.466 132.341 156.466ZM153.077 170.318C151.44 170.318 149.986 170.038 148.713 169.477C147.448 168.917 146.448 168.136 145.713 167.136C144.978 166.136 144.588 164.981 144.543 163.67H148.815C148.853 164.299 149.062 164.848 149.44 165.318C149.819 165.78 150.323 166.14 150.952 166.398C151.58 166.655 152.285 166.784 153.065 166.784C153.899 166.784 154.637 166.64 155.281 166.352C155.925 166.057 156.429 165.648 156.793 165.125C157.156 164.602 157.334 164 157.327 163.318C157.334 162.614 157.152 161.992 156.781 161.455C156.41 160.917 155.872 160.496 155.168 160.193C154.471 159.89 153.63 159.739 152.645 159.739H150.588V156.489H152.645C153.455 156.489 154.164 156.348 154.77 156.068C155.384 155.788 155.865 155.394 156.213 154.886C156.562 154.371 156.732 153.777 156.724 153.102C156.732 152.443 156.584 151.871 156.281 151.386C155.986 150.894 155.565 150.511 155.02 150.239C154.482 149.966 153.849 149.83 153.122 149.83C152.41 149.83 151.751 149.958 151.145 150.216C150.539 150.473 150.05 150.841 149.679 151.318C149.308 151.788 149.111 152.348 149.088 153H145.031C145.062 151.697 145.437 150.553 146.156 149.568C146.884 148.576 147.853 147.803 149.065 147.25C150.277 146.689 151.637 146.409 153.145 146.409C154.698 146.409 156.046 146.701 157.19 147.284C158.342 147.86 159.232 148.636 159.861 149.614C160.49 150.591 160.804 151.67 160.804 152.852C160.812 154.163 160.425 155.261 159.645 156.148C158.872 157.034 157.857 157.614 156.599 157.886V158.068C158.236 158.295 159.49 158.902 160.361 159.886C161.24 160.864 161.675 162.08 161.668 163.534C161.668 164.837 161.296 166.004 160.554 167.034C159.819 168.057 158.804 168.86 157.509 169.443C156.221 170.027 154.743 170.318 153.077 170.318ZM178.011 165.636V164.409C178.011 163.508 178.201 162.678 178.58 161.92C178.966 161.163 179.527 160.553 180.261 160.091C180.996 159.629 181.886 159.398 182.932 159.398C184.008 159.398 184.909 159.629 185.636 160.091C186.364 160.545 186.913 161.152 187.284 161.909C187.663 162.667 187.852 163.5 187.852 164.409V165.636C187.852 166.538 187.663 167.367 187.284 168.125C186.905 168.883 186.348 169.492 185.614 169.955C184.886 170.417 183.992 170.648 182.932 170.648C181.871 170.648 180.973 170.417 180.239 169.955C179.504 169.492 178.947 168.883 178.568 168.125C178.197 167.367 178.011 166.538 178.011 165.636ZM180.977 164.409V165.636C180.977 166.235 181.121 166.784 181.409 167.284C181.697 167.784 182.205 168.034 182.932 168.034C183.667 168.034 184.17 167.788 184.443 167.295C184.723 166.795 184.864 166.242 184.864 165.636V164.409C184.864 163.803 184.731 163.25 184.466 162.75C184.201 162.242 183.689 161.989 182.932 161.989C182.22 161.989 181.716 162.242 181.42 162.75C181.125 163.25 180.977 163.803 180.977 164.409ZM166.182 152.318V151.091C166.182 150.182 166.375 149.348 166.761 148.591C167.148 147.833 167.708 147.227 168.443 146.773C169.178 146.311 170.068 146.08 171.114 146.08C172.182 146.08 173.08 146.311 173.807 146.773C174.542 147.227 175.095 147.833 175.466 148.591C175.837 149.348 176.023 150.182 176.023 151.091V152.318C176.023 153.227 175.833 154.061 175.455 154.818C175.083 155.568 174.53 156.17 173.795 156.625C173.061 157.08 172.167 157.307 171.114 157.307C170.045 157.307 169.144 157.08 168.409 156.625C167.682 156.17 167.129 155.564 166.75 154.807C166.371 154.049 166.182 153.22 166.182 152.318ZM169.17 151.091V152.318C169.17 152.924 169.311 153.477 169.591 153.977C169.879 154.47 170.386 154.716 171.114 154.716C171.841 154.716 172.341 154.47 172.614 153.977C172.894 153.477 173.034 152.924 173.034 152.318V151.091C173.034 150.485 172.902 149.932 172.636 149.432C172.371 148.924 171.864 148.67 171.114 148.67C170.394 148.67 169.89 148.924 169.602 149.432C169.314 149.939 169.17 150.492 169.17 151.091ZM167.477 170L183.477 146.727H186.318L170.318 170H167.477Z" fill="#293241"/>
<rect x="336" width="312" height="315" rx="18" fill="white"/>
<rect x="355" y="154" width="42" height="145" rx="15" fill="#EAEBEC"/>
<rect x="355" y="227" width="42" height="72" rx="15" fill="#EDCB50"/>
<rect x="413" y="154" width="42" height="145" rx="15" fill="#EAEBEC"/>
<rect x="413" y="211" width="42" height="88" rx="15" fill="#EDCB50"/>
<rect x="471" y="154" width="42" height="145" rx="15" fill="#EAEBEC"/>
<rect x="471" y="232" width="42" height="67" rx="15" fill="#EDCB50"/>
<rect x="529" y="154" width="42" height="145" rx="15" fill="#EAEBEC"/>
<rect x="529" y="208" width="42" height="91" rx="15" fill="#EDCB50"/>
<rect x="587" y="154" width="42" height="145" rx="15" fill="#EAEBEC"/>
<rect x="587" y="186" width="42" height="113" rx="15" fill="#EDCB50"/>
<path d="M370.341 92.3182C368.652 92.3182 367.152 92.0341 365.841 91.4659C364.538 90.8977 363.515 90.1212 362.773 89.1364C362.038 88.1439 361.674 87.0189 361.682 85.7614C361.674 84.7841 361.886 83.8864 362.318 83.0682C362.75 82.25 363.333 81.5682 364.068 81.0227C364.811 80.4697 365.636 80.1174 366.545 79.9659V79.8068C365.348 79.5417 364.379 78.9318 363.636 77.9773C362.902 77.0152 362.538 75.9053 362.545 74.6477C362.538 73.4508 362.871 72.3826 363.545 71.4432C364.22 70.5038 365.144 69.7652 366.318 69.2273C367.492 68.6818 368.833 68.4091 370.341 68.4091C371.833 68.4091 373.163 68.6818 374.33 69.2273C375.504 69.7652 376.428 70.5038 377.102 71.4432C377.784 72.3826 378.125 73.4508 378.125 74.6477C378.125 75.9053 377.75 77.0152 377 77.9773C376.258 78.9318 375.299 79.5417 374.125 79.8068V79.9659C375.034 80.1174 375.852 80.4697 376.58 81.0227C377.314 81.5682 377.898 82.25 378.33 83.0682C378.769 83.8864 378.989 84.7841 378.989 85.7614C378.989 87.0189 378.617 88.1439 377.875 89.1364C377.133 90.1212 376.11 90.8977 374.807 91.4659C373.511 92.0341 372.023 92.3182 370.341 92.3182ZM370.341 89.0682C371.212 89.0682 371.97 88.9205 372.614 88.625C373.258 88.322 373.758 87.8977 374.114 87.3523C374.47 86.8068 374.652 86.178 374.659 85.4659C374.652 84.7235 374.458 84.0682 374.08 83.5C373.708 82.9242 373.197 82.4735 372.545 82.1477C371.902 81.822 371.167 81.6591 370.341 81.6591C369.508 81.6591 368.765 81.822 368.114 82.1477C367.462 82.4735 366.947 82.9242 366.568 83.5C366.197 84.0682 366.015 84.7235 366.023 85.4659C366.015 86.178 366.189 86.8068 366.545 87.3523C366.902 87.8902 367.402 88.3106 368.045 88.6136C368.697 88.9167 369.462 89.0682 370.341 89.0682ZM370.341 78.4659C371.053 78.4659 371.682 78.322 372.227 78.0341C372.78 77.7462 373.216 77.3447 373.534 76.8295C373.852 76.3144 374.015 75.7197 374.023 75.0455C374.015 74.3788 373.856 73.7955 373.545 73.2955C373.235 72.7879 372.803 72.3977 372.25 72.125C371.697 71.8447 371.061 71.7045 370.341 71.7045C369.606 71.7045 368.958 71.8447 368.398 72.125C367.845 72.3977 367.413 72.7879 367.102 73.2955C366.799 73.7955 366.652 74.3788 366.659 75.0455C366.652 75.7197 366.803 76.3144 367.114 76.8295C367.432 77.3371 367.867 77.7386 368.42 78.0341C368.981 78.322 369.621 78.4659 370.341 78.4659ZM386.912 88.8182L386.764 90.0682C386.658 91.0227 386.469 91.9924 386.196 92.9773C385.931 93.9697 385.651 94.8826 385.355 95.7159C385.06 96.5492 384.821 97.2045 384.639 97.6818H381.866C381.973 97.2197 382.116 96.5909 382.298 95.7955C382.488 95 382.67 94.1061 382.844 93.1136C383.018 92.1212 383.135 91.1136 383.196 90.0909L383.276 88.8182H386.912ZM399.284 92.3182C397.769 92.3182 396.413 92.0341 395.216 91.4659C394.019 90.8902 393.068 90.1023 392.364 89.1023C391.667 88.1023 391.295 86.9583 391.25 85.6705H395.341C395.417 86.625 395.83 87.4053 396.58 88.0114C397.33 88.6098 398.231 88.9091 399.284 88.9091C400.11 88.9091 400.845 88.7197 401.489 88.3409C402.133 87.9621 402.64 87.4356 403.011 86.7614C403.383 86.0871 403.564 85.3182 403.557 84.4545C403.564 83.5758 403.379 82.7955 403 82.1136C402.621 81.4318 402.102 80.8977 401.443 80.5114C400.784 80.1174 400.027 79.9205 399.17 79.9205C398.473 79.9129 397.788 80.0417 397.114 80.3068C396.439 80.572 395.905 80.9205 395.511 81.3523L391.705 80.7273L392.92 68.7273H406.42V72.25H396.409L395.739 78.4205H395.875C396.307 77.9129 396.917 77.4924 397.705 77.1591C398.492 76.8182 399.356 76.6477 400.295 76.6477C401.705 76.6477 402.962 76.9811 404.068 77.6477C405.174 78.3068 406.045 79.2159 406.682 80.375C407.318 81.5341 407.636 82.8598 407.636 84.3523C407.636 85.8902 407.28 87.2614 406.568 88.4659C405.864 89.6629 404.883 90.6061 403.625 91.2955C402.375 91.9773 400.928 92.3182 399.284 92.3182ZM411.443 92V88.9545L419.523 81.0341C420.295 80.2538 420.939 79.5606 421.455 78.9545C421.97 78.3485 422.356 77.7614 422.614 77.1932C422.871 76.625 423 76.0189 423 75.375C423 74.6402 422.833 74.0114 422.5 73.4886C422.167 72.9583 421.708 72.5492 421.125 72.2614C420.542 71.9735 419.879 71.8295 419.136 71.8295C418.371 71.8295 417.701 71.9886 417.125 72.3068C416.549 72.6174 416.102 73.0606 415.784 73.6364C415.473 74.2121 415.318 74.8977 415.318 75.6932H411.307C411.307 74.2159 411.644 72.9318 412.318 71.8409C412.992 70.75 413.92 69.9053 415.102 69.3068C416.292 68.7083 417.655 68.4091 419.193 68.4091C420.754 68.4091 422.125 68.7008 423.307 69.2841C424.489 69.8674 425.405 70.6667 426.057 71.6818C426.716 72.697 427.045 73.8561 427.045 75.1591C427.045 76.0303 426.879 76.8864 426.545 77.7273C426.212 78.5682 425.625 79.5 424.784 80.5227C423.951 81.5455 422.78 82.7841 421.273 84.2386L417.261 88.3182V88.4773H427.398V92H411.443ZM435.114 86.5227L435.102 81.5568H435.761L442.034 74.5455H446.841L439.125 83.1364H438.273L435.114 86.5227ZM431.364 92V68.7273H435.477V92H431.364ZM442.318 92L436.636 84.0568L439.409 81.1591L447.239 92H442.318Z" fill="#293241"/>
<path d="M371.659 31.9091C371.557 31.0455 371.142 30.375 370.415 29.8977C369.688 29.4205 368.795 29.1818 367.739 29.1818C366.966 29.1818 366.29 29.3068 365.71 29.5568C365.136 29.8068 364.688 30.1506 364.364 30.5881C364.045 31.0256 363.886 31.5227 363.886 32.0795C363.886 32.5455 363.997 32.946 364.219 33.2812C364.446 33.6108 364.736 33.8864 365.088 34.108C365.44 34.3239 365.81 34.5028 366.196 34.6449C366.582 34.7812 366.938 34.892 367.261 34.9773L369.034 35.4545C369.489 35.5739 369.994 35.7386 370.551 35.9489C371.114 36.1591 371.651 36.446 372.162 36.8097C372.679 37.1676 373.105 37.6278 373.44 38.1903C373.776 38.7528 373.943 39.4432 373.943 40.2614C373.943 41.2045 373.696 42.0568 373.202 42.8182C372.713 43.5795 371.997 44.1847 371.054 44.6335C370.116 45.0824 368.977 45.3068 367.636 45.3068C366.386 45.3068 365.304 45.1051 364.389 44.7017C363.48 44.2983 362.764 43.7358 362.241 43.0142C361.724 42.2926 361.432 41.4545 361.364 40.5H363.545C363.602 41.1591 363.824 41.7045 364.21 42.1364C364.602 42.5625 365.097 42.8807 365.693 43.0909C366.295 43.2955 366.943 43.3977 367.636 43.3977C368.443 43.3977 369.168 43.267 369.81 43.0057C370.452 42.7386 370.96 42.3693 371.335 41.8977C371.71 41.4205 371.898 40.8636 371.898 40.2273C371.898 39.6477 371.736 39.1761 371.412 38.8125C371.088 38.4489 370.662 38.1534 370.134 37.9261C369.605 37.6989 369.034 37.5 368.42 37.3295L366.273 36.7159C364.909 36.3239 363.83 35.7642 363.034 35.0369C362.239 34.3097 361.841 33.358 361.841 32.1818C361.841 31.2045 362.105 30.3523 362.634 29.625C363.168 28.892 363.884 28.3239 364.781 27.9205C365.685 27.5114 366.693 27.3068 367.807 27.3068C368.932 27.3068 369.932 27.5085 370.807 27.9119C371.682 28.3097 372.375 28.8551 372.886 29.5483C373.403 30.2415 373.676 31.0284 373.705 31.9091H371.659ZM382.089 45.2727C380.998 45.2727 380.035 44.9972 379.2 44.446C378.364 43.8892 377.711 43.1051 377.239 42.0938C376.768 41.0767 376.532 39.875 376.532 38.4886C376.532 37.1136 376.768 35.9205 377.239 34.9091C377.711 33.8977 378.367 33.1165 379.208 32.5653C380.049 32.0142 381.021 31.7386 382.123 31.7386C382.975 31.7386 383.648 31.8807 384.143 32.1648C384.643 32.4432 385.023 32.7614 385.285 33.1193C385.552 33.4716 385.759 33.7614 385.907 33.9886H386.077V27.5455H388.089V45H386.146V42.9886H385.907C385.759 43.2273 385.549 43.5284 385.276 43.892C385.004 44.25 384.614 44.571 384.109 44.8551C383.603 45.1335 382.93 45.2727 382.089 45.2727ZM382.362 43.4659C383.168 43.4659 383.85 43.2557 384.407 42.8352C384.964 42.4091 385.387 41.821 385.677 41.071C385.967 40.3153 386.112 39.4432 386.112 38.4545C386.112 37.4773 385.969 36.6222 385.685 35.8892C385.401 35.1506 384.981 34.5767 384.424 34.1676C383.867 33.7528 383.18 33.5455 382.362 33.5455C381.509 33.5455 380.799 33.7642 380.231 34.2017C379.668 34.6335 379.245 35.2216 378.961 35.9659C378.683 36.7045 378.543 37.5341 378.543 38.4545C378.543 39.3864 378.685 40.233 378.969 40.9943C379.259 41.75 379.685 42.3523 380.248 42.8011C380.816 43.2443 381.521 43.4659 382.362 43.4659ZM397.881 31.9091V33.6136H390.825V31.9091H397.881ZM392.938 45V30.1023C392.938 29.3523 393.114 28.7273 393.467 28.2273C393.819 27.7273 394.276 27.3523 394.839 27.1023C395.401 26.8523 395.995 26.7273 396.62 26.7273C397.114 26.7273 397.518 26.767 397.83 26.8466C398.143 26.9261 398.376 27 398.529 27.0682L397.95 28.8068C397.847 28.7727 397.705 28.7301 397.523 28.679C397.347 28.6278 397.114 28.6023 396.825 28.6023C396.16 28.6023 395.68 28.7699 395.384 29.1051C395.094 29.4403 394.95 29.9318 394.95 30.5795V45H392.938ZM400.7 45V31.9091H402.712V45H400.7ZM401.723 29.7273C401.331 29.7273 400.993 29.5938 400.709 29.3267C400.43 29.0597 400.291 28.7386 400.291 28.3636C400.291 27.9886 400.43 27.6676 400.709 27.4006C400.993 27.1335 401.331 27 401.723 27C402.115 27 402.45 27.1335 402.729 27.4006C403.013 27.6676 403.155 27.9886 403.155 28.3636C403.155 28.7386 403.013 29.0597 402.729 29.3267C402.45 29.5938 402.115 29.7273 401.723 29.7273ZM410.248 45.3068C409.418 45.3068 408.665 45.1506 407.989 44.8381C407.313 44.5199 406.776 44.0625 406.379 43.4659C405.981 42.8636 405.782 42.1364 405.782 41.2841C405.782 40.5341 405.93 39.9261 406.225 39.4602C406.521 38.9886 406.915 38.6193 407.41 38.3523C407.904 38.0852 408.45 37.8864 409.046 37.7557C409.648 37.6193 410.254 37.5114 410.862 37.4318C411.657 37.3295 412.302 37.2528 412.796 37.2017C413.296 37.1449 413.66 37.0511 413.887 36.9205C414.12 36.7898 414.237 36.5625 414.237 36.2386V36.1705C414.237 35.3295 414.006 34.6761 413.546 34.2102C413.092 33.7443 412.401 33.5114 411.475 33.5114C410.515 33.5114 409.762 33.7216 409.217 34.142C408.671 34.5625 408.288 35.0114 408.066 35.4886L406.157 34.8068C406.498 34.0114 406.952 33.392 407.521 32.9489C408.094 32.5 408.719 32.1875 409.396 32.0114C410.077 31.8295 410.748 31.7386 411.407 31.7386C411.827 31.7386 412.31 31.7898 412.856 31.892C413.407 31.9886 413.938 32.1903 414.45 32.4972C414.967 32.804 415.396 33.267 415.737 33.8864C416.077 34.5057 416.248 35.3352 416.248 36.375V45H414.237V43.2273H414.134C413.998 43.5114 413.771 43.8153 413.452 44.1392C413.134 44.4631 412.711 44.7386 412.183 44.9659C411.654 45.1932 411.009 45.3068 410.248 45.3068ZM410.555 43.5C411.35 43.5 412.021 43.3438 412.566 43.0312C413.117 42.7188 413.532 42.3153 413.81 41.821C414.094 41.3267 414.237 40.8068 414.237 40.2614V38.4205C414.151 38.5227 413.964 38.6165 413.674 38.7017C413.39 38.7812 413.06 38.8523 412.685 38.9148C412.316 38.9716 411.955 39.0227 411.603 39.0682C411.256 39.108 410.975 39.142 410.759 39.1705C410.237 39.2386 409.748 39.3494 409.293 39.5028C408.844 39.6506 408.481 39.875 408.202 40.1761C407.93 40.4716 407.793 40.875 407.793 41.3864C407.793 42.0852 408.052 42.6136 408.569 42.9716C409.092 43.3239 409.754 43.5 410.555 43.5ZM440.783 27.5455V45H438.737L429.226 31.2955H429.055V45H426.942V27.5455H428.987L438.533 41.2841H438.703V27.5455H440.783ZM448.592 45.3068C447.762 45.3068 447.009 45.1506 446.333 44.8381C445.657 44.5199 445.12 44.0625 444.722 43.4659C444.325 42.8636 444.126 42.1364 444.126 41.2841C444.126 40.5341 444.273 39.9261 444.569 39.4602C444.864 38.9886 445.259 38.6193 445.754 38.3523C446.248 38.0852 446.793 37.8864 447.39 37.7557C447.992 37.6193 448.597 37.5114 449.205 37.4318C450.001 37.3295 450.646 37.2528 451.14 37.2017C451.64 37.1449 452.004 37.0511 452.231 36.9205C452.464 36.7898 452.58 36.5625 452.58 36.2386V36.1705C452.58 35.3295 452.35 34.6761 451.89 34.2102C451.435 33.7443 450.745 33.5114 449.819 33.5114C448.859 33.5114 448.106 33.7216 447.56 34.142C447.015 34.5625 446.631 35.0114 446.41 35.4886L444.501 34.8068C444.842 34.0114 445.296 33.392 445.864 32.9489C446.438 32.5 447.063 32.1875 447.739 32.0114C448.421 31.8295 449.092 31.7386 449.751 31.7386C450.171 31.7386 450.654 31.7898 451.2 31.892C451.751 31.9886 452.282 32.1903 452.793 32.4972C453.31 32.804 453.739 33.267 454.08 33.8864C454.421 34.5057 454.592 35.3352 454.592 36.375V45H452.58V43.2273H452.478C452.342 43.5114 452.114 43.8153 451.796 44.1392C451.478 44.4631 451.055 44.7386 450.526 44.9659C449.998 45.1932 449.353 45.3068 448.592 45.3068ZM448.898 43.5C449.694 43.5 450.364 43.3438 450.91 43.0312C451.461 42.7188 451.876 42.3153 452.154 41.821C452.438 41.3267 452.58 40.8068 452.58 40.2614V38.4205C452.495 38.5227 452.308 38.6165 452.018 38.7017C451.734 38.7812 451.404 38.8523 451.029 38.9148C450.66 38.9716 450.299 39.0227 449.947 39.0682C449.6 39.108 449.319 39.142 449.103 39.1705C448.58 39.2386 448.092 39.3494 447.637 39.5028C447.188 39.6506 446.825 39.875 446.546 40.1761C446.273 40.4716 446.137 40.875 446.137 41.3864C446.137 42.0852 446.396 42.6136 446.913 42.9716C447.435 43.3239 448.097 43.5 448.898 43.5ZM467.536 34.8409L465.729 35.3523C465.615 35.0511 465.447 34.7585 465.226 34.4744C465.01 34.1847 464.714 33.946 464.339 33.7585C463.964 33.571 463.484 33.4773 462.899 33.4773C462.098 33.4773 461.43 33.6619 460.896 34.0312C460.368 34.3949 460.104 34.858 460.104 35.4205C460.104 35.9205 460.286 36.3153 460.649 36.6051C461.013 36.8949 461.581 37.1364 462.354 37.3295L464.297 37.8068C465.467 38.0909 466.339 38.5256 466.913 39.1108C467.487 39.6903 467.774 40.4375 467.774 41.3523C467.774 42.1023 467.558 42.7727 467.126 43.3636C466.7 43.9545 466.104 44.4205 465.337 44.7614C464.57 45.1023 463.678 45.2727 462.661 45.2727C461.325 45.2727 460.22 44.983 459.345 44.4034C458.47 43.8239 457.916 42.9773 457.683 41.8636L459.592 41.3864C459.774 42.0909 460.118 42.6193 460.624 42.9716C461.135 43.3239 461.803 43.5 462.626 43.5C463.564 43.5 464.308 43.3011 464.859 42.9034C465.416 42.5 465.695 42.017 465.695 41.4545C465.695 41 465.536 40.6193 465.217 40.3125C464.899 40 464.411 39.767 463.751 39.6136L461.57 39.1023C460.371 38.8182 459.49 38.3778 458.928 37.7812C458.371 37.179 458.092 36.4261 458.092 35.5227C458.092 34.7841 458.3 34.1307 458.714 33.5625C459.135 32.9943 459.706 32.5483 460.428 32.2244C461.155 31.9006 461.979 31.7386 462.899 31.7386C464.195 31.7386 465.212 32.0227 465.95 32.5909C466.695 33.1591 467.223 33.9091 467.536 34.8409ZM475.745 45.2727C474.654 45.2727 473.691 44.9972 472.856 44.446C472.021 43.8892 471.367 43.1051 470.896 42.0938C470.424 41.0767 470.188 39.875 470.188 38.4886C470.188 37.1136 470.424 35.9205 470.896 34.9091C471.367 33.8977 472.023 33.1165 472.864 32.5653C473.705 32.0142 474.677 31.7386 475.779 31.7386C476.631 31.7386 477.305 31.8807 477.799 32.1648C478.299 32.4432 478.68 32.7614 478.941 33.1193C479.208 33.4716 479.415 33.7614 479.563 33.9886H479.734V27.5455H481.745V45H479.802V42.9886H479.563C479.415 43.2273 479.205 43.5284 478.933 43.892C478.66 44.25 478.271 44.571 477.765 44.8551C477.259 45.1335 476.586 45.2727 475.745 45.2727ZM476.018 43.4659C476.825 43.4659 477.506 43.2557 478.063 42.8352C478.62 42.4091 479.043 41.821 479.333 41.071C479.623 40.3153 479.768 39.4432 479.768 38.4545C479.768 37.4773 479.626 36.6222 479.342 35.8892C479.058 35.1506 478.637 34.5767 478.08 34.1676C477.523 33.7528 476.836 33.5455 476.018 33.5455C475.165 33.5455 474.455 33.7642 473.887 34.2017C473.325 34.6335 472.901 35.2216 472.617 35.9659C472.339 36.7045 472.2 37.5341 472.2 38.4545C472.2 39.3864 472.342 40.233 472.626 40.9943C472.915 41.75 473.342 42.3523 473.904 42.8011C474.472 43.2443 475.177 43.4659 476.018 43.4659ZM485.708 45V31.9091H487.651V33.9545H487.822C488.094 33.2557 488.535 32.7131 489.143 32.3267C489.751 31.9347 490.481 31.7386 491.333 31.7386C492.197 31.7386 492.915 31.9347 493.489 32.3267C494.069 32.7131 494.521 33.2557 494.844 33.9545H494.981C495.316 33.2784 495.819 32.7415 496.489 32.3438C497.16 31.9403 497.964 31.7386 498.901 31.7386C500.072 31.7386 501.029 32.1051 501.773 32.8381C502.518 33.5653 502.89 34.6989 502.89 36.2386V45H500.879V36.2386C500.879 35.2727 500.614 34.5824 500.086 34.1676C499.558 33.7528 498.935 33.5455 498.219 33.5455C497.299 33.5455 496.586 33.8239 496.08 34.3807C495.575 34.9318 495.322 35.6307 495.322 36.4773V45H493.276V36.0341C493.276 35.2898 493.035 34.6903 492.552 34.2358C492.069 33.7756 491.447 33.5455 490.685 33.5455C490.163 33.5455 489.674 33.6847 489.219 33.9631C488.771 34.2415 488.407 34.6278 488.129 35.1222C487.856 35.6108 487.719 36.1761 487.719 36.8182V45H485.708Z" fill="#545B67"/>
<rect x="224" y="339" width="312" height="324" rx="18" fill="white"/>
<path d="M236 557.5L225.5 568L224 569V645.5C224 658.3 235.333 662.167 241 662.5H516C532 662.5 536 651.5 536 646L535.5 501L527.5 493L515 519.5L510 504.5L498 522.5L492.5 531L487.5 557.5H464L455 531L443.5 513.5L433 519.5C431 527.5 426.7 544.6 425.5 549C424.3 553.4 401 556.5 389.5 557.5L384 534L334.5 549L317.5 531C317.833 537 318.3 549 317.5 549C316.7 549 307.5 559.667 303 565L288.5 549L273 537.5V543.5C266.167 551.667 251.6 569 248 573C244.4 577 241.833 571.333 241 568L236 557.5Z" fill="url(#paint0_linear_68_56)"/>
<path d="M225.5 568L236 557.5L241 568C241.833 571.333 244.4 577 248 573C251.6 569 266.167 551.667 273 543.5V537.5L288.5 549L303 565C307.5 559.667 316.7 549 317.5 549C318.3 549 317.833 537 317.5 531L334.5 549L384 534L389.5 557.5C401 556.5 424.3 553.4 425.5 549C426.7 544.6 431 527.5 433 519.5L443.5 513.5L455 531L464 557.5H487.5L492.5 531L498 522.5L510 504.5L515 519.5L527.5 493L535.5 501" stroke="#448C74" stroke-width="2"/>
<path d="M257.568 444.909V415.818H259.432V444.909H257.568ZM262.943 425.125C262.837 424.133 262.39 423.36 261.602 422.807C260.822 422.254 259.807 421.977 258.557 421.977C257.678 421.977 256.924 422.11 256.295 422.375C255.667 422.64 255.186 423 254.852 423.455C254.519 423.909 254.348 424.428 254.341 425.011C254.341 425.496 254.451 425.917 254.67 426.273C254.898 426.629 255.205 426.932 255.591 427.182C255.977 427.424 256.405 427.629 256.875 427.795C257.345 427.962 257.818 428.102 258.295 428.216L260.477 428.761C261.356 428.966 262.201 429.242 263.011 429.591C263.83 429.939 264.561 430.379 265.205 430.909C265.856 431.439 266.371 432.08 266.75 432.83C267.129 433.58 267.318 434.458 267.318 435.466C267.318 436.83 266.97 438.03 266.273 439.068C265.576 440.098 264.568 440.905 263.25 441.489C261.939 442.064 260.352 442.352 258.489 442.352C256.678 442.352 255.106 442.072 253.773 441.511C252.447 440.951 251.409 440.133 250.659 439.057C249.917 437.981 249.515 436.67 249.455 435.125H253.602C253.663 435.936 253.913 436.61 254.352 437.148C254.792 437.686 255.364 438.087 256.068 438.352C256.78 438.617 257.576 438.75 258.455 438.75C259.371 438.75 260.174 438.614 260.864 438.341C261.561 438.061 262.106 437.674 262.5 437.182C262.894 436.682 263.095 436.098 263.102 435.432C263.095 434.826 262.917 434.326 262.568 433.932C262.22 433.53 261.731 433.197 261.102 432.932C260.481 432.659 259.754 432.417 258.92 432.205L256.273 431.523C254.356 431.03 252.841 430.284 251.727 429.284C250.621 428.277 250.068 426.939 250.068 425.273C250.068 423.902 250.439 422.701 251.182 421.67C251.932 420.64 252.951 419.841 254.239 419.273C255.527 418.697 256.985 418.409 258.614 418.409C260.265 418.409 261.712 418.697 262.955 419.273C264.205 419.841 265.186 420.633 265.898 421.648C266.61 422.655 266.977 423.814 267 425.125H262.943ZM287.06 442.318C285.37 442.318 283.87 442.034 282.56 441.466C281.257 440.898 280.234 440.121 279.491 439.136C278.757 438.144 278.393 437.019 278.401 435.761C278.393 434.784 278.605 433.886 279.037 433.068C279.469 432.25 280.052 431.568 280.787 431.023C281.529 430.47 282.355 430.117 283.264 429.966V429.807C282.067 429.542 281.098 428.932 280.355 427.977C279.62 427.015 279.257 425.905 279.264 424.648C279.257 423.451 279.59 422.383 280.264 421.443C280.938 420.504 281.863 419.765 283.037 419.227C284.211 418.682 285.552 418.409 287.06 418.409C288.552 418.409 289.882 418.682 291.048 419.227C292.223 419.765 293.147 420.504 293.821 421.443C294.503 422.383 294.844 423.451 294.844 424.648C294.844 425.905 294.469 427.015 293.719 427.977C292.976 428.932 292.018 429.542 290.844 429.807V429.966C291.753 430.117 292.571 430.47 293.298 431.023C294.033 431.568 294.616 432.25 295.048 433.068C295.488 433.886 295.707 434.784 295.707 435.761C295.707 437.019 295.336 438.144 294.594 439.136C293.851 440.121 292.829 440.898 291.526 441.466C290.23 442.034 288.741 442.318 287.06 442.318ZM287.06 439.068C287.931 439.068 288.688 438.92 289.332 438.625C289.976 438.322 290.476 437.898 290.832 437.352C291.188 436.807 291.37 436.178 291.378 435.466C291.37 434.723 291.177 434.068 290.798 433.5C290.427 432.924 289.916 432.473 289.264 432.148C288.62 431.822 287.885 431.659 287.06 431.659C286.226 431.659 285.484 431.822 284.832 432.148C284.181 432.473 283.666 432.924 283.287 433.5C282.916 434.068 282.734 434.723 282.741 435.466C282.734 436.178 282.908 436.807 283.264 437.352C283.62 437.89 284.12 438.311 284.764 438.614C285.416 438.917 286.181 439.068 287.06 439.068ZM287.06 428.466C287.772 428.466 288.401 428.322 288.946 428.034C289.499 427.746 289.935 427.345 290.253 426.83C290.571 426.314 290.734 425.72 290.741 425.045C290.734 424.379 290.575 423.795 290.264 423.295C289.954 422.788 289.522 422.398 288.969 422.125C288.416 421.845 287.779 421.705 287.06 421.705C286.325 421.705 285.677 421.845 285.116 422.125C284.563 422.398 284.132 422.788 283.821 423.295C283.518 423.795 283.37 424.379 283.378 425.045C283.37 425.72 283.522 426.314 283.832 426.83C284.151 427.337 284.586 427.739 285.139 428.034C285.7 428.322 286.34 428.466 287.06 428.466ZM303.631 438.818L303.483 440.068C303.377 441.023 303.188 441.992 302.915 442.977C302.65 443.97 302.369 444.883 302.074 445.716C301.778 446.549 301.54 447.205 301.358 447.682H298.585C298.691 447.22 298.835 446.591 299.017 445.795C299.206 445 299.388 444.106 299.562 443.114C299.737 442.121 299.854 441.114 299.915 440.091L299.994 438.818H303.631ZM316.003 442.318C314.488 442.318 313.132 442.034 311.935 441.466C310.738 440.89 309.787 440.102 309.082 439.102C308.385 438.102 308.014 436.958 307.969 435.67H312.06C312.135 436.625 312.548 437.405 313.298 438.011C314.048 438.61 314.95 438.909 316.003 438.909C316.829 438.909 317.563 438.72 318.207 438.341C318.851 437.962 319.359 437.436 319.73 436.761C320.101 436.087 320.283 435.318 320.276 434.455C320.283 433.576 320.098 432.795 319.719 432.114C319.34 431.432 318.821 430.898 318.162 430.511C317.503 430.117 316.745 429.92 315.889 429.92C315.192 429.913 314.507 430.042 313.832 430.307C313.158 430.572 312.624 430.92 312.23 431.352L308.423 430.727L309.639 418.727H323.139V422.25H313.128L312.457 428.42H312.594C313.026 427.913 313.635 427.492 314.423 427.159C315.211 426.818 316.075 426.648 317.014 426.648C318.423 426.648 319.681 426.981 320.787 427.648C321.893 428.307 322.764 429.216 323.401 430.375C324.037 431.534 324.355 432.86 324.355 434.352C324.355 435.89 323.999 437.261 323.287 438.466C322.582 439.663 321.601 440.606 320.344 441.295C319.094 441.977 317.647 442.318 316.003 442.318ZM328.162 442V438.955L336.241 431.034C337.014 430.254 337.658 429.561 338.173 428.955C338.688 428.348 339.075 427.761 339.332 427.193C339.59 426.625 339.719 426.019 339.719 425.375C339.719 424.64 339.552 424.011 339.219 423.489C338.885 422.958 338.427 422.549 337.844 422.261C337.26 421.973 336.598 421.83 335.855 421.83C335.09 421.83 334.42 421.989 333.844 422.307C333.268 422.617 332.821 423.061 332.503 423.636C332.192 424.212 332.037 424.898 332.037 425.693H328.026C328.026 424.216 328.363 422.932 329.037 421.841C329.711 420.75 330.639 419.905 331.821 419.307C333.01 418.708 334.374 418.409 335.912 418.409C337.473 418.409 338.844 418.701 340.026 419.284C341.207 419.867 342.124 420.667 342.776 421.682C343.435 422.697 343.764 423.856 343.764 425.159C343.764 426.03 343.598 426.886 343.264 427.727C342.931 428.568 342.344 429.5 341.503 430.523C340.67 431.545 339.499 432.784 337.991 434.239L333.98 438.318V438.477H344.116V442H328.162ZM351.832 436.523L351.821 431.557H352.48L358.753 424.545H363.56L355.844 433.136H354.991L351.832 436.523ZM348.082 442V418.727H352.196V442H348.082ZM359.037 442L353.355 434.057L356.128 431.159L363.957 442H359.037Z" fill="#293241"/>
<path d="M249.585 382V368.909H257.486V370.315H251.17V374.739H257.077V376.145H251.17V380.594H257.588V382H249.585ZM261.263 372.182L263.616 376.196L265.968 372.182H267.707L264.536 377.091L267.707 382H265.968L263.616 378.19L261.263 382H259.525L262.644 377.091L259.525 372.182H261.263ZM273.444 382.205C272.523 382.205 271.73 381.987 271.066 381.553C270.401 381.118 269.89 380.519 269.532 379.756C269.174 378.994 268.995 378.122 268.995 377.142C268.995 376.145 269.178 375.265 269.544 374.502C269.915 373.735 270.431 373.136 271.091 372.706C271.756 372.271 272.532 372.054 273.418 372.054C274.108 372.054 274.73 372.182 275.284 372.438C275.838 372.693 276.292 373.051 276.646 373.511C277 373.972 277.219 374.509 277.304 375.122H275.796C275.681 374.675 275.425 374.278 275.029 373.933C274.637 373.584 274.108 373.409 273.444 373.409C272.855 373.409 272.34 373.562 271.897 373.869C271.458 374.172 271.115 374.6 270.868 375.154C270.625 375.704 270.503 376.349 270.503 377.091C270.503 377.849 270.623 378.51 270.861 379.072C271.104 379.635 271.445 380.072 271.884 380.383C272.327 380.694 272.847 380.849 273.444 380.849C273.836 380.849 274.191 380.781 274.511 380.645C274.831 380.509 275.101 380.312 275.323 380.057C275.544 379.801 275.702 379.494 275.796 379.136H277.304C277.219 379.716 277.008 380.238 276.672 380.702C276.339 381.163 275.898 381.529 275.348 381.802C274.803 382.07 274.168 382.205 273.444 382.205ZM283.626 382.205C282.68 382.205 281.864 381.996 281.178 381.578C280.496 381.156 279.97 380.568 279.599 379.814C279.233 379.055 279.049 378.173 279.049 377.168C279.049 376.162 279.233 375.276 279.599 374.509C279.97 373.737 280.485 373.136 281.146 372.706C281.811 372.271 282.586 372.054 283.473 372.054C283.984 372.054 284.489 372.139 284.988 372.31C285.486 372.48 285.94 372.757 286.349 373.141C286.758 373.52 287.084 374.023 287.327 374.649C287.57 375.276 287.691 376.047 287.691 376.963V377.602H280.123V376.298H286.157C286.157 375.744 286.047 375.25 285.825 374.815C285.608 374.381 285.297 374.038 284.892 373.786C284.491 373.535 284.018 373.409 283.473 373.409C282.872 373.409 282.352 373.558 281.913 373.857C281.478 374.151 281.144 374.534 280.909 375.007C280.675 375.48 280.558 375.987 280.558 376.528V377.398C280.558 378.139 280.686 378.768 280.941 379.283C281.201 379.795 281.561 380.185 282.022 380.453C282.482 380.717 283.017 380.849 283.626 380.849C284.022 380.849 284.38 380.794 284.7 380.683C285.024 380.568 285.303 380.398 285.537 380.172C285.772 379.942 285.953 379.656 286.081 379.315L287.538 379.724C287.385 380.219 287.127 380.653 286.765 381.028C286.402 381.399 285.955 381.689 285.422 381.898C284.89 382.102 284.291 382.205 283.626 382.205ZM289.986 385.682V372.182H291.444V373.741H291.623C291.733 373.571 291.887 373.354 292.083 373.089C292.283 372.821 292.569 372.582 292.939 372.374C293.314 372.161 293.821 372.054 294.461 372.054C295.287 372.054 296.016 372.261 296.647 372.674C297.277 373.087 297.77 373.673 298.123 374.432C298.477 375.19 298.654 376.085 298.654 377.116C298.654 378.156 298.477 379.058 298.123 379.82C297.77 380.579 297.279 381.167 296.653 381.585C296.027 381.998 295.304 382.205 294.486 382.205C293.855 382.205 293.35 382.1 292.971 381.891C292.592 381.678 292.3 381.437 292.096 381.169C291.891 380.896 291.733 380.67 291.623 380.491H291.495V385.682H289.986ZM291.469 377.091C291.469 377.832 291.578 378.487 291.795 379.053C292.012 379.616 292.33 380.057 292.748 380.376C293.165 380.692 293.676 380.849 294.282 380.849C294.912 380.849 295.439 380.683 295.86 380.351C296.287 380.014 296.606 379.562 296.819 378.996C297.037 378.425 297.145 377.79 297.145 377.091C297.145 376.401 297.039 375.778 296.826 375.224C296.617 374.666 296.299 374.225 295.873 373.901C295.451 373.573 294.921 373.409 294.282 373.409C293.668 373.409 293.152 373.565 292.735 373.876C292.317 374.183 292.002 374.613 291.789 375.167C291.576 375.717 291.469 376.358 291.469 377.091ZM305.225 372.182V373.46H300.137V372.182H305.225ZM301.62 369.83H303.128V379.188C303.128 379.614 303.19 379.933 303.314 380.146C303.441 380.355 303.603 380.496 303.799 380.568C304 380.636 304.211 380.67 304.432 380.67C304.598 380.67 304.735 380.662 304.841 380.645C304.948 380.624 305.033 380.607 305.097 380.594L305.404 381.949C305.301 381.987 305.159 382.026 304.975 382.064C304.792 382.107 304.56 382.128 304.279 382.128C303.853 382.128 303.435 382.036 303.026 381.853C302.621 381.67 302.284 381.391 302.016 381.016C301.752 380.641 301.62 380.168 301.62 379.597V369.83ZM311.505 382.205C310.559 382.205 309.743 381.996 309.057 381.578C308.375 381.156 307.849 380.568 307.478 379.814C307.112 379.055 306.928 378.173 306.928 377.168C306.928 376.162 307.112 375.276 307.478 374.509C307.849 373.737 308.364 373.136 309.025 372.706C309.69 372.271 310.465 372.054 311.352 372.054C311.863 372.054 312.368 372.139 312.866 372.31C313.365 372.48 313.819 372.757 314.228 373.141C314.637 373.52 314.963 374.023 315.206 374.649C315.449 375.276 315.57 376.047 315.57 376.963V377.602H308.002V376.298H314.036C314.036 375.744 313.925 375.25 313.704 374.815C313.487 374.381 313.175 374.038 312.771 373.786C312.37 373.535 311.897 373.409 311.352 373.409C310.751 373.409 310.231 373.558 309.792 373.857C309.357 374.151 309.023 374.534 308.788 375.007C308.554 375.48 308.437 375.987 308.437 376.528V377.398C308.437 378.139 308.565 378.768 308.82 379.283C309.08 379.795 309.44 380.185 309.901 380.453C310.361 380.717 310.896 380.849 311.505 380.849C311.901 380.849 312.259 380.794 312.579 380.683C312.903 380.568 313.182 380.398 313.416 380.172C313.651 379.942 313.832 379.656 313.96 379.315L315.417 379.724C315.263 380.219 315.006 380.653 314.643 381.028C314.281 381.399 313.834 381.689 313.301 381.898C312.768 382.102 312.17 382.205 311.505 382.205ZM321.572 382.205C320.754 382.205 320.032 381.998 319.406 381.585C318.779 381.167 318.289 380.579 317.935 379.82C317.582 379.058 317.405 378.156 317.405 377.116C317.405 376.085 317.582 375.19 317.935 374.432C318.289 373.673 318.781 373.087 319.412 372.674C320.043 372.261 320.771 372.054 321.598 372.054C322.237 372.054 322.742 372.161 323.113 372.374C323.488 372.582 323.773 372.821 323.969 373.089C324.17 373.354 324.325 373.571 324.436 373.741H324.564V368.909H326.072V382H324.615V380.491H324.436C324.325 380.67 324.168 380.896 323.963 381.169C323.759 381.437 323.467 381.678 323.087 381.891C322.708 382.1 322.203 382.205 321.572 382.205ZM321.777 380.849C322.382 380.849 322.893 380.692 323.311 380.376C323.729 380.057 324.046 379.616 324.263 379.053C324.481 378.487 324.589 377.832 324.589 377.091C324.589 376.358 324.483 375.717 324.27 375.167C324.057 374.613 323.741 374.183 323.324 373.876C322.906 373.565 322.391 373.409 321.777 373.409C321.138 373.409 320.605 373.573 320.179 373.901C319.757 374.225 319.44 374.666 319.227 375.224C319.018 375.778 318.913 376.401 318.913 377.091C318.913 377.79 319.02 378.425 319.233 378.996C319.45 379.562 319.77 380.014 320.192 380.351C320.618 380.683 321.146 380.849 321.777 380.849ZM334.312 382V368.909H342.212V370.315H335.897V374.739H341.803V376.145H335.897V380.594H342.315V382H334.312ZM347.754 382.23C347.132 382.23 346.567 382.113 346.06 381.879C345.553 381.64 345.151 381.297 344.852 380.849C344.554 380.398 344.405 379.852 344.405 379.213C344.405 378.651 344.516 378.195 344.737 377.845C344.959 377.491 345.255 377.214 345.626 377.014C345.996 376.814 346.406 376.665 346.853 376.567C347.305 376.464 347.759 376.384 348.214 376.324C348.811 376.247 349.295 376.19 349.665 376.151C350.04 376.109 350.313 376.038 350.484 375.94C350.658 375.842 350.746 375.672 350.746 375.429V375.378C350.746 374.747 350.573 374.257 350.228 373.908C349.887 373.558 349.369 373.384 348.675 373.384C347.955 373.384 347.39 373.541 346.981 373.857C346.572 374.172 346.284 374.509 346.118 374.866L344.686 374.355C344.942 373.759 345.283 373.294 345.709 372.962C346.139 372.625 346.608 372.391 347.115 372.259C347.626 372.122 348.129 372.054 348.624 372.054C348.939 372.054 349.301 372.092 349.71 372.169C350.124 372.241 350.522 372.393 350.906 372.623C351.293 372.853 351.615 373.2 351.871 373.665C352.126 374.129 352.254 374.751 352.254 375.531V382H350.746V380.67H350.669C350.567 380.884 350.396 381.112 350.158 381.354C349.919 381.597 349.602 381.804 349.205 381.974C348.809 382.145 348.325 382.23 347.754 382.23ZM347.984 380.875C348.581 380.875 349.084 380.758 349.493 380.523C349.906 380.289 350.217 379.987 350.426 379.616C350.639 379.245 350.746 378.855 350.746 378.446V377.065C350.682 377.142 350.541 377.212 350.324 377.276C350.111 377.336 349.864 377.389 349.582 377.436C349.305 377.479 349.035 377.517 348.771 377.551C348.511 377.581 348.3 377.607 348.138 377.628C347.746 377.679 347.379 377.762 347.038 377.877C346.702 377.988 346.429 378.156 346.22 378.382C346.016 378.604 345.913 378.906 345.913 379.29C345.913 379.814 346.107 380.21 346.495 380.479C346.887 380.743 347.384 380.875 347.984 380.875ZM355.008 382V372.182H356.465V373.665H356.567C356.746 373.179 357.07 372.785 357.539 372.482C358.008 372.18 358.536 372.028 359.124 372.028C359.235 372.028 359.373 372.031 359.54 372.035C359.706 372.039 359.831 372.045 359.917 372.054V373.588C359.866 373.575 359.748 373.556 359.565 373.531C359.386 373.501 359.197 373.486 358.996 373.486C358.519 373.486 358.093 373.586 357.718 373.786C357.347 373.982 357.053 374.255 356.836 374.604C356.623 374.95 356.516 375.344 356.516 375.787V382H355.008ZM363.213 376.094V382H361.705V372.182H363.162V373.716H363.29C363.52 373.217 363.87 372.817 364.338 372.514C364.807 372.207 365.412 372.054 366.154 372.054C366.819 372.054 367.4 372.19 367.899 372.463C368.397 372.732 368.785 373.141 369.062 373.69C369.339 374.236 369.478 374.926 369.478 375.761V382H367.969V375.864C367.969 375.092 367.769 374.491 367.368 374.061C366.968 373.626 366.418 373.409 365.719 373.409C365.238 373.409 364.807 373.513 364.428 373.722C364.053 373.931 363.757 374.236 363.539 374.636C363.322 375.037 363.213 375.523 363.213 376.094ZM372.234 382V372.182H373.743V382H372.234ZM373.001 370.545C372.707 370.545 372.454 370.445 372.241 370.245C372.032 370.045 371.927 369.804 371.927 369.523C371.927 369.241 372.032 369.001 372.241 368.8C372.454 368.6 372.707 368.5 373.001 368.5C373.295 368.5 373.547 368.6 373.756 368.8C373.969 369.001 374.075 369.241 374.075 369.523C374.075 369.804 373.969 370.045 373.756 370.245C373.547 370.445 373.295 370.545 373.001 370.545ZM378.014 376.094V382H376.506V372.182H377.963V373.716H378.091C378.321 373.217 378.67 372.817 379.139 372.514C379.608 372.207 380.213 372.054 380.955 372.054C381.619 372.054 382.201 372.19 382.7 372.463C383.198 372.732 383.586 373.141 383.863 373.69C384.14 374.236 384.278 374.926 384.278 375.761V382H382.77V375.864C382.77 375.092 382.57 374.491 382.169 374.061C381.768 373.626 381.219 373.409 380.52 373.409C380.038 373.409 379.608 373.513 379.229 373.722C378.854 373.931 378.558 374.236 378.34 374.636C378.123 375.037 378.014 375.523 378.014 376.094ZM390.998 385.886C390.269 385.886 389.643 385.793 389.119 385.605C388.595 385.422 388.158 385.179 387.808 384.876C387.463 384.578 387.188 384.259 386.984 383.918L388.186 383.074C388.322 383.253 388.494 383.457 388.703 383.688C388.912 383.922 389.198 384.124 389.56 384.295C389.926 384.469 390.406 384.557 390.998 384.557C391.791 384.557 392.445 384.365 392.96 383.982C393.476 383.598 393.734 382.997 393.734 382.179V380.185H393.606C393.495 380.364 393.338 380.585 393.133 380.849C392.933 381.109 392.643 381.342 392.264 381.546C391.889 381.746 391.382 381.847 390.742 381.847C389.95 381.847 389.238 381.659 388.607 381.284C387.981 380.909 387.485 380.364 387.118 379.648C386.756 378.932 386.575 378.062 386.575 377.04C386.575 376.034 386.752 375.158 387.105 374.413C387.459 373.663 387.951 373.083 388.582 372.674C389.213 372.261 389.941 372.054 390.768 372.054C391.407 372.054 391.914 372.161 392.289 372.374C392.669 372.582 392.958 372.821 393.159 373.089C393.363 373.354 393.521 373.571 393.632 373.741H393.785V372.182H395.242V382.281C395.242 383.125 395.051 383.811 394.667 384.339C394.288 384.872 393.776 385.262 393.133 385.509C392.494 385.761 391.782 385.886 390.998 385.886ZM390.947 380.491C391.552 380.491 392.063 380.353 392.481 380.076C392.899 379.799 393.216 379.401 393.433 378.881C393.651 378.361 393.759 377.739 393.759 377.014C393.759 376.307 393.653 375.683 393.44 375.141C393.227 374.6 392.911 374.176 392.494 373.869C392.076 373.562 391.561 373.409 390.947 373.409C390.308 373.409 389.775 373.571 389.349 373.895C388.927 374.219 388.61 374.653 388.396 375.199C388.188 375.744 388.083 376.349 388.083 377.014C388.083 377.696 388.19 378.299 388.403 378.823C388.62 379.343 388.94 379.752 389.362 380.05C389.788 380.344 390.316 380.491 390.947 380.491Z" fill="#545B67"/>
<rect x="248" y="466" width="74" height="29" rx="8" fill="#448C74"/>
<path d="M264.057 484.21V477.648H265.17V484.21H264.057ZM261.332 481.486V480.372H267.895V481.486H261.332ZM269.804 486V485.105L273.165 481.426C273.559 480.995 273.884 480.621 274.139 480.303C274.394 479.981 274.583 479.679 274.706 479.398C274.832 479.113 274.895 478.814 274.895 478.503C274.895 478.145 274.809 477.835 274.636 477.573C274.467 477.311 274.235 477.109 273.94 476.967C273.645 476.824 273.314 476.753 272.946 476.753C272.555 476.753 272.214 476.834 271.922 476.996C271.634 477.156 271.41 477.379 271.251 477.668C271.095 477.956 271.017 478.294 271.017 478.682H269.844C269.844 478.085 269.981 477.562 270.256 477.111C270.531 476.66 270.906 476.309 271.38 476.057C271.857 475.805 272.393 475.679 272.986 475.679C273.582 475.679 274.111 475.805 274.572 476.057C275.032 476.309 275.394 476.648 275.656 477.076C275.917 477.504 276.048 477.979 276.048 478.503C276.048 478.877 275.98 479.244 275.844 479.602C275.712 479.956 275.48 480.352 275.148 480.79C274.82 481.224 274.365 481.754 273.781 482.381L271.494 484.827V484.906H276.227V486H269.804ZM277.823 483.912V482.898L282.298 475.818H283.033V477.389H282.536L279.156 482.739V482.818H285.181V483.912H277.823ZM282.616 486V483.604V483.131V475.818H283.789V486H282.616ZM287.441 486.08C287.195 486.08 286.985 485.992 286.809 485.816C286.634 485.64 286.546 485.43 286.546 485.185C286.546 484.939 286.634 484.729 286.809 484.553C286.985 484.378 287.195 484.29 287.441 484.29C287.686 484.29 287.896 484.378 288.072 484.553C288.248 484.729 288.336 484.939 288.336 485.185C288.336 485.347 288.294 485.496 288.211 485.632C288.132 485.768 288.024 485.877 287.888 485.96C287.756 486.04 287.606 486.08 287.441 486.08ZM293.398 486.139C292.815 486.139 292.289 486.023 291.822 485.791C291.355 485.559 290.98 485.241 290.698 484.837C290.417 484.432 290.262 483.972 290.236 483.455H291.429C291.476 483.915 291.684 484.296 292.056 484.598C292.43 484.896 292.878 485.045 293.398 485.045C293.816 485.045 294.187 484.948 294.512 484.752C294.84 484.557 295.097 484.288 295.282 483.947C295.471 483.602 295.566 483.213 295.566 482.778C295.566 482.334 295.468 481.938 295.272 481.59C295.08 481.239 294.815 480.962 294.477 480.76C294.139 480.558 293.753 480.455 293.318 480.452C293.007 480.448 292.687 480.496 292.359 480.596C292.031 480.692 291.761 480.816 291.548 480.969L290.395 480.83L291.012 475.818H296.301V476.912H292.046L291.688 479.915H291.747C291.956 479.749 292.218 479.612 292.533 479.502C292.848 479.393 293.176 479.338 293.517 479.338C294.14 479.338 294.695 479.487 295.183 479.786C295.673 480.08 296.058 480.485 296.336 480.999C296.618 481.512 296.759 482.099 296.759 482.759C296.759 483.408 296.613 483.988 296.321 484.499C296.033 485.006 295.635 485.407 295.128 485.702C294.621 485.993 294.044 486.139 293.398 486.139ZM303.924 484.091V483.554C303.924 483.183 304 482.843 304.153 482.535C304.308 482.223 304.534 481.975 304.829 481.789C305.127 481.6 305.488 481.506 305.913 481.506C306.344 481.506 306.705 481.6 306.996 481.789C307.288 481.975 307.509 482.223 307.658 482.535C307.807 482.843 307.881 483.183 307.881 483.554V484.091C307.881 484.462 307.805 484.804 307.653 485.115C307.504 485.423 307.281 485.672 306.987 485.861C306.695 486.046 306.337 486.139 305.913 486.139C305.482 486.139 305.119 486.046 304.824 485.861C304.529 485.672 304.305 485.423 304.153 485.115C304 484.804 303.924 484.462 303.924 484.091ZM304.938 483.554V484.091C304.938 484.399 305.011 484.676 305.157 484.921C305.303 485.163 305.555 485.284 305.913 485.284C306.261 485.284 306.506 485.163 306.648 484.921C306.794 484.676 306.867 484.399 306.867 484.091V483.554C306.867 483.246 306.798 482.971 306.658 482.729C306.519 482.483 306.271 482.361 305.913 482.361C305.565 482.361 305.314 482.483 305.162 482.729C305.013 482.971 304.938 483.246 304.938 483.554ZM298.853 478.264V477.727C298.853 477.356 298.929 477.016 299.082 476.708C299.237 476.397 299.463 476.148 299.758 475.962C300.056 475.773 300.417 475.679 300.842 475.679C301.272 475.679 301.634 475.773 301.925 475.962C302.217 476.148 302.438 476.397 302.587 476.708C302.736 477.016 302.81 477.356 302.81 477.727V478.264C302.81 478.635 302.734 478.977 302.582 479.288C302.433 479.597 302.21 479.845 301.915 480.034C301.624 480.22 301.266 480.312 300.842 480.312C300.411 480.312 300.048 480.22 299.753 480.034C299.458 479.845 299.234 479.597 299.082 479.288C298.929 478.977 298.853 478.635 298.853 478.264ZM299.867 477.727V478.264C299.867 478.572 299.94 478.849 300.086 479.094C300.232 479.336 300.484 479.457 300.842 479.457C301.19 479.457 301.435 479.336 301.577 479.094C301.723 478.849 301.796 478.572 301.796 478.264V477.727C301.796 477.419 301.727 477.144 301.587 476.902C301.448 476.657 301.2 476.534 300.842 476.534C300.494 476.534 300.243 476.657 300.091 476.902C299.942 477.144 299.867 477.419 299.867 477.727ZM299.231 486L306.231 475.818H307.364L300.364 486H299.231Z" fill="white"/>
<defs>
<linearGradient id="paint0_linear_68_56" x1="380" y1="446.5" x2="385" y2="658.5" gradientUnits="userSpaceOnUse">
<stop stop-color="#448C74" stop-opacity="0.5"/>
<stop offset="1" stop-color="#448C74" stop-opacity="0"/>
</linearGradient>
</defs>
</svg>
