<svg width="72" height="72" viewBox="0 0 72 72" fill="none" xmlns="http://www.w3.org/2000/svg">
<rect width="72" height="72" rx="12" fill="#1681FE"/>
<path d="M52.5 21.3332H47V19.4998C47 19.0136 46.8069 18.5473 46.463 18.2035C46.1192 17.8597 45.6529 17.6665 45.1667 17.6665H26.8334C26.3471 17.6665 25.8808 17.8597 25.537 18.2035C25.1932 18.5473 25 19.0136 25 19.4998V21.3332H19.5C19.0138 21.3332 18.5475 21.5263 18.2037 21.8701C17.8598 22.214 17.6667 22.6803 17.6667 23.1665V28.6665C17.6667 30.6114 18.4393 32.4767 19.8146 33.852C21.1898 35.2272 23.0551 35.9998 25 35.9998H27.8234C29.4817 37.8499 31.7175 39.0841 34.1667 39.5015V43.3332H32.3334C30.8747 43.3332 29.4757 43.9126 28.4443 44.9441C27.4128 45.9755 26.8334 47.3745 26.8334 48.8332V52.4998C26.8334 52.9861 27.0265 53.4524 27.3703 53.7962C27.7141 54.14 28.1805 54.3332 28.6667 54.3332H43.3334C43.8196 54.3332 44.2859 54.14 44.6297 53.7962C44.9735 53.4524 45.1667 52.9861 45.1667 52.4998V48.8332C45.1667 47.3745 44.5872 45.9755 43.5558 44.9441C42.5243 43.9126 41.1254 43.3332 39.6667 43.3332H37.8334V39.5015C40.2826 39.0841 42.5184 37.8499 44.1767 35.9998H47C48.9449 35.9998 50.8102 35.2272 52.1855 33.852C53.5607 32.4767 54.3334 30.6114 54.3334 28.6665V23.1665C54.3334 22.6803 54.1402 22.214 53.7964 21.8701C53.4526 21.5263 52.9862 21.3332 52.5 21.3332ZM25 32.3332C24.0276 32.3332 23.0949 31.9469 22.4073 31.2592C21.7197 30.5716 21.3334 29.639 21.3334 28.6665V24.9998H25V28.6665C25.0041 29.9163 25.221 31.1563 25.6417 32.3332H25ZM39.6667 46.9998C40.1529 46.9998 40.6192 47.193 40.963 47.5368C41.3069 47.8806 41.5 48.3469 41.5 48.8332V50.6665H30.5V48.8332C30.5 48.3469 30.6932 47.8806 31.037 47.5368C31.3808 47.193 31.8471 46.9998 32.3334 46.9998H39.6667ZM43.3334 28.6665C43.3334 30.6114 42.5607 32.4767 41.1855 33.852C39.8102 35.2272 37.9449 35.9998 36 35.9998C34.0551 35.9998 32.1898 35.2272 30.8146 33.852C29.4393 32.4767 28.6667 30.6114 28.6667 28.6665V21.3332H43.3334V28.6665ZM50.6667 28.6665C50.6667 29.639 50.2804 30.5716 49.5927 31.2592C48.9051 31.9469 47.9725 32.3332 47 32.3332H46.3584C46.779 31.1563 46.996 29.9163 47 28.6665V24.9998H50.6667V28.6665Z" fill="white"/>
</svg>
